<mxfile host="app.diagrams.net" modified="2021-01-10T20:57:35.663Z" agent="5.0 (Windows NT 10.0; Win64; x64) AppleWebKit/537.36 (KHTML, like Gecko) Chrome/87.0.4280.88 Safari/537.36" etag="8n_BDBqJMA88GS0G5hJH" version="14.1.9" type="github">
  <diagram name="Page-1" id="e7e014a7-5840-1c2e-5031-d8a46d1fe8dd">
    <mxGraphModel dx="1038" dy="548" grid="1" gridSize="10" guides="1" tooltips="1" connect="1" arrows="1" fold="1" page="1" pageScale="1" pageWidth="1169" pageHeight="826" background="#ffffff" math="0" shadow="0">
      <root>
        <mxCell id="0" />
        <mxCell id="1" parent="0" />
        <mxCell id="pxMy3FflL4P5x_3dX81Q-2" style="edgeStyle=none;rounded=0;orthogonalLoop=1;jettySize=auto;html=1;exitX=0.5;exitY=1;exitDx=0;exitDy=0;" edge="1" parent="1" source="RiwZxE8X9bk74-8BF_xY-43">
          <mxGeometry relative="1" as="geometry">
            <mxPoint x="275" y="360" as="targetPoint" />
          </mxGeometry>
        </mxCell>
        <UserObject label="LongNumber" id="RiwZxE8X9bk74-8BF_xY-43">
          <mxCell style="swimlane;fontStyle=1;align=center;verticalAlign=top;childLayout=stackLayout;horizontal=1;startSize=26;horizontalStack=0;resizeParent=1;resizeParentMax=0;resizeLast=0;collapsible=1;marginBottom=0;" parent="1" vertex="1">
            <mxGeometry x="160" y="80" width="230" height="84" as="geometry">
              <mxRectangle x="160" y="80" width="110" height="26" as="alternateBounds" />
            </mxGeometry>
          </mxCell>
        </UserObject>
        <object label="+ frf: type" Mantissa="*char" Exponent="*char" Attributes="struct" placeholders="1" id="RiwZxE8X9bk74-8BF_xY-44">
          <mxCell style="text;strokeColor=red;fillColor=none;align=left;verticalAlign=top;spacingLeft=4;spacingRight=4;overflow=hidden;rotatable=0;points=[[0,0.5],[1,0.5]];portConstraint=eastwest;" parent="RiwZxE8X9bk74-8BF_xY-43" vertex="1">
            <mxGeometry y="26" width="230" height="20" as="geometry" />
          </mxCell>
        </object>
        <mxCell id="RiwZxE8X9bk74-8BF_xY-45" value="" style="line;strokeWidth=1;fillColor=none;align=left;verticalAlign=middle;spacingTop=-1;spacingLeft=3;spacingRight=3;rotatable=0;labelPosition=right;points=[];portConstraint=eastwest;" parent="RiwZxE8X9bk74-8BF_xY-43" vertex="1">
          <mxGeometry y="46" width="230" height="38" as="geometry" />
        </mxCell>
        <mxCell id="RiwZxE8X9bk74-8BF_xY-47" value="Classname" style="swimlane;fontStyle=0;childLayout=stackLayout;horizontal=1;startSize=26;fillColor=none;horizontalStack=0;resizeParent=1;resizeParentMax=0;resizeLast=0;collapsible=1;marginBottom=0;" parent="1" vertex="1">
          <mxGeometry x="430" y="90" width="140" height="104" as="geometry" />
        </mxCell>
        <object label="+ field: type" Name="char[]" Surname="char[]" id="RiwZxE8X9bk74-8BF_xY-48">
          <mxCell style="text;strokeColor=none;fillColor=none;align=left;verticalAlign=top;spacingLeft=4;spacingRight=4;overflow=hidden;rotatable=0;points=[[0,0.5],[1,0.5]];portConstraint=eastwest;" parent="RiwZxE8X9bk74-8BF_xY-47" vertex="1">
            <mxGeometry y="26" width="140" height="26" as="geometry" />
          </mxCell>
        </object>
        <mxCell id="RiwZxE8X9bk74-8BF_xY-49" value="+ field: type" style="text;strokeColor=none;fillColor=none;align=left;verticalAlign=top;spacingLeft=4;spacingRight=4;overflow=hidden;rotatable=0;points=[[0,0.5],[1,0.5]];portConstraint=eastwest;" parent="RiwZxE8X9bk74-8BF_xY-47" vertex="1">
          <mxGeometry y="52" width="140" height="26" as="geometry" />
        </mxCell>
        <mxCell id="RiwZxE8X9bk74-8BF_xY-50" value="+ field: type" style="text;strokeColor=none;fillColor=none;align=left;verticalAlign=top;spacingLeft=4;spacingRight=4;overflow=hidden;rotatable=0;points=[[0,0.5],[1,0.5]];portConstraint=eastwest;" parent="RiwZxE8X9bk74-8BF_xY-47" vertex="1">
          <mxGeometry y="78" width="140" height="26" as="geometry" />
        </mxCell>
        <mxCell id="pxMy3FflL4P5x_3dX81Q-3" style="edgeStyle=none;rounded=0;orthogonalLoop=1;jettySize=auto;html=1;exitX=0.25;exitY=0;exitDx=0;exitDy=0;entryX=1;entryY=0.5;entryDx=0;entryDy=0;" edge="1" parent="1" source="RiwZxE8X9bk74-8BF_xY-51" target="RiwZxE8X9bk74-8BF_xY-50">
          <mxGeometry relative="1" as="geometry">
            <Array as="points">
              <mxPoint x="740" y="110" />
              <mxPoint x="640" y="110" />
              <mxPoint x="640" y="181" />
            </Array>
          </mxGeometry>
        </mxCell>
        <mxCell id="RiwZxE8X9bk74-8BF_xY-51" value="Personal Record" style="swimlane;fontStyle=1;align=center;verticalAlign=top;childLayout=stackLayout;horizontal=1;startSize=26;horizontalStack=0;resizeParent=1;resizeParentMax=0;resizeLast=0;collapsible=1;marginBottom=0;fillColor=#d5e8d4;strokeColor=#82b366;gradientColor=#ffffff;" parent="1" vertex="1">
          <mxGeometry x="700" y="150" width="160" height="190" as="geometry" />
        </mxCell>
        <mxCell id="RiwZxE8X9bk74-8BF_xY-52" value="char: name" style="text;strokeColor=none;fillColor=none;align=left;verticalAlign=top;spacingLeft=4;spacingRight=4;overflow=hidden;rotatable=0;points=[[0,0.5],[1,0.5]];portConstraint=eastwest;" parent="RiwZxE8X9bk74-8BF_xY-51" vertex="1">
          <mxGeometry y="26" width="160" height="26" as="geometry" />
        </mxCell>
        <mxCell id="RiwZxE8X9bk74-8BF_xY-53" value="" style="line;strokeWidth=1;fillColor=none;align=left;verticalAlign=middle;spacingTop=-1;spacingLeft=3;spacingRight=3;rotatable=0;labelPosition=right;points=[];portConstraint=eastwest;" parent="RiwZxE8X9bk74-8BF_xY-51" vertex="1">
          <mxGeometry y="52" width="160" height="8" as="geometry" />
        </mxCell>
        <mxCell id="RiwZxE8X9bk74-8BF_xY-46" value="char[] surname" style="text;strokeColor=none;fillColor=none;align=left;verticalAlign=top;spacingLeft=4;spacingRight=4;overflow=hidden;rotatable=0;points=[[0,0.5],[1,0.5]];portConstraint=eastwest;" parent="RiwZxE8X9bk74-8BF_xY-51" vertex="1">
          <mxGeometry y="60" width="160" height="26" as="geometry" />
        </mxCell>
        <mxCell id="RiwZxE8X9bk74-8BF_xY-54" value="int age" style="text;strokeColor=none;fillColor=none;align=left;verticalAlign=top;spacingLeft=4;spacingRight=4;overflow=hidden;rotatable=0;points=[[0,0.5],[1,0.5]];portConstraint=eastwest;" parent="RiwZxE8X9bk74-8BF_xY-51" vertex="1">
          <mxGeometry y="86" width="160" height="26" as="geometry" />
        </mxCell>
        <mxCell id="pxMy3FflL4P5x_3dX81Q-4" value="int age" style="text;strokeColor=none;fillColor=none;align=left;verticalAlign=top;spacingLeft=4;spacingRight=4;overflow=hidden;rotatable=0;points=[[0,0.5],[1,0.5]];portConstraint=eastwest;" vertex="1" parent="RiwZxE8X9bk74-8BF_xY-51">
          <mxGeometry y="112" width="160" height="26" as="geometry" />
        </mxCell>
        <mxCell id="pxMy3FflL4P5x_3dX81Q-5" value="int age" style="text;strokeColor=none;fillColor=none;align=left;verticalAlign=top;spacingLeft=4;spacingRight=4;overflow=hidden;rotatable=0;points=[[0,0.5],[1,0.5]];portConstraint=eastwest;" vertex="1" parent="RiwZxE8X9bk74-8BF_xY-51">
          <mxGeometry y="138" width="160" height="26" as="geometry" />
        </mxCell>
        <mxCell id="pxMy3FflL4P5x_3dX81Q-6" value="int age" style="text;strokeColor=none;fillColor=none;align=left;verticalAlign=top;spacingLeft=4;spacingRight=4;overflow=hidden;rotatable=0;points=[[0,0.5],[1,0.5]];portConstraint=eastwest;" vertex="1" parent="RiwZxE8X9bk74-8BF_xY-51">
          <mxGeometry y="164" width="160" height="26" as="geometry" />
        </mxCell>
        <mxCell id="_2YBUm_AH7wqgtEJQWv6-1" value="&lt;p style=&quot;margin:0px;margin-top:4px;text-align:center;&quot;&gt;&lt;b&gt;Class&lt;/b&gt;&lt;/p&gt;&lt;hr size=&quot;1&quot;/&gt;&lt;p style=&quot;margin:0px;margin-left:4px;&quot;&gt;+ field: Type&lt;/p&gt;&lt;hr size=&quot;1&quot;/&gt;&lt;p style=&quot;margin:0px;margin-left:4px;&quot;&gt;+ method(): Type&lt;/p&gt;" style="verticalAlign=top;align=left;overflow=fill;fontSize=12;fontFamily=Helvetica;html=1;" vertex="1" parent="1">
          <mxGeometry x="425" y="252" width="160" height="228" as="geometry" />
        </mxCell>
      </root>
    </mxGraphModel>
  </diagram>
</mxfile>
